<?xml version="1.0" encoding="UTF-8" standalone="no"?>
<svg
   xmlns:dc="http://purl.org/dc/elements/1.1/"
   xmlns:cc="http://creativecommons.org/ns#"
   xmlns:rdf="http://www.w3.org/1999/02/22-rdf-syntax-ns#"
   xmlns:svg="http://www.w3.org/2000/svg"
   xmlns="http://www.w3.org/2000/svg"
   xmlns:sodipodi="http://sodipodi.sourceforge.net/DTD/sodipodi-0.dtd"
   xmlns:inkscape="http://www.inkscape.org/namespaces/inkscape"
   width="464.12479mm"
   height="334.23648mm"
   viewBox="0 0 464.12479 334.23648"
   version="1.1"
   id="svg8"
   inkscape:version="1.0.1 (3bc2e813f5, 2020-09-07)"
   sodipodi:docname="coordinatesm.svg">
  <defs
     id="defs2">
    <inkscape:perspective
       sodipodi:type="inkscape:persp3d"
       inkscape:vp_x="0 : 185.73648 : 1"
       inkscape:vp_y="0 : 999.99998 : 0"
       inkscape:vp_z="210.00001 : 185.73648 : 1"
       inkscape:persp3d-origin="105.00001 : 136.23648 : 1"
       id="perspective3420" />
  </defs>
  <sodipodi:namedview
     id="base"
     pagecolor="#ffffff"
     bordercolor="#666666"
     borderopacity="1.0"
     inkscape:pageopacity="0.0"
     inkscape:pageshadow="2"
     inkscape:zoom="0.1767767"
     inkscape:cx="382.47849"
     inkscape:cy="737.91042"
     inkscape:document-units="mm"
     inkscape:current-layer="layer1"
     inkscape:document-rotation="0"
     showgrid="false"
     inkscape:snap-smooth-nodes="true"
     inkscape:window-width="1366"
     inkscape:window-height="745"
     inkscape:window-x="-8"
     inkscape:window-y="-8"
     inkscape:window-maximized="1"
     fit-margin-top="0"
     fit-margin-left="0"
     fit-margin-right="0"
     fit-margin-bottom="0" />
  <metadata
     id="metadata5">
    <rdf:RDF>
      <cc:Work
         rdf:about="">
        <dc:format>image/svg+xml</dc:format>
        <dc:type
           rdf:resource="http://purl.org/dc/dcmitype/StillImage" />
        <dc:title></dc:title>
      </cc:Work>
    </rdf:RDF>
  </metadata>
  <g
     inkscape:label="Layer 1"
     inkscape:groupmode="layer"
     id="layer1"
     transform="translate(613.20905,115.35833)">
    <path
       style="fill:#000000;stroke:#000000;stroke-width:0.232833"
       id="path843"
       d="m -338.2996,134.1183 c 4.03794,-1.9667 8.13177,-3.77417 12.13163,-5.84817 5.17219,-2.74801 9.96343,-6.31663 14.86003,-9.69447 1.58592,-1.09402 0.93074,-0.56446 2.31823,-1.91794 2.09961,-2.21374 3.86343,-4.80589 5.51089,-7.49334 1.50819,-3.10348 2.59115,-6.47994 3.41839,-9.921874 0.27728,-1.924678 1.05889,-4.284266 0.16874,-6.15516 -0.1678,-0.35267 -0.39144,-0.66328 -0.58715,-0.99492 -2.79975,-3.46455 -5.87047,-6.65529 -9.04373,-9.6326 -1.98996,-1.79406 -3.98447,-3.790047 -6.53047,-4.174169 -3.84133,0.388012 -6.65261,4.103019 -10.06784,6.131329 -2.55161,1.51539 9.67065,-7.160714 7.40538,-5.098546 -18.26645,16.628724 -5.3022,2.618846 -9.0798,6.725296 -1.1972,1.75439 -2.44774,3.47182 -3.39959,5.43436 -0.62147,1.26233 -0.33255,0.6269 -0.8693,1.90463 0,0 8.46862,-4.54215 8.46862,-4.54215 v 0 c 0.55021,-1.20386 0.25921,-0.5964 0.87561,-1.82061 1.02442,-1.84677 2.21114,-3.61246 3.54787,-5.14881 0.20488,-0.20392 0.84895,-0.7642 0.61463,-0.61175 -2.5008,1.627 -9.86531,6.79838 -7.4263,5.04338 2.82613,-2.03353 5.81042,-3.75285 8.58794,-5.87924 2.40859,-1.843947 -4.99734,3.33092 -7.47958,5.03071 -0.40527,0.27752 1.69101,-0.98382 1.28623,-0.66575 2.47665,-0.33552 4.53731,1.85153 6.48574,3.3751 3.16752,2.74806 6.12716,5.88684 8.62101,9.498539 0.11363,0.229987 0.54908,1.031754 0.62698,1.407841 0.33085,1.597254 -0.2244,3.289344 -0.45822,4.838774 -0.82049,3.38434 -1.93959,6.6922 -3.62162,9.6105 -1.61793,2.63554 -3.39794,5.13997 -5.55873,7.17456 -2.54206,2.13346 -7.95469,5.56196 4.07485,-2.58788 0.55576,-0.37653 -1.09045,0.79702 -1.65303,1.15889 -0.1598,0.10279 -4.18524,2.48192 -4.18871,2.48397 -3.80084,2.07481 -7.74512,3.81827 -11.69073,5.45371 0,0 -7.34797,6.91579 -7.34797,6.91579 z" />
    <path
       style="fill:#000000;stroke:#000000;stroke-width:0.232833;stroke-miterlimit:3.5;stroke-dasharray:none"
       id="path849"
       d="m -302.53833,80.291936 c 0.23708,-2.901438 0.66326,-5.782562 0.93124,-8.681226 0.38812,-3.494969 0.71234,-7.01425 0.82202,-10.532226 0.10915,-2.829221 0.16226,-5.660075 0.20773,-8.490939 0.21921,-2.864376 0.40303,-5.731436 0.54383,-8.601106 -0.20977,-3.948106 -1.17682,-7.764492 -2.20786,-11.558045 -0.90162,-3.263791 -2.39544,-6.264383 -4.03178,-9.203399 -1.46617,-2.197503 -3.07031,-4.355783 -5.06057,-6.105244 -2.05919,-1.81005 -4.45115,-3.272121 -6.74879,-4.742522 -2.77513,-1.769569 -5.74608,-3.1792135 -8.62057,-4.7653596 -2.79272,-1.5578454 -5.7044,-2.8508724 -8.67208,-4.0228252 -2.82709,-1.3113717 -5.85414,-2.0505802 -8.8046,-3.00527752 -2.69877,-0.92517003 -5.55566,-1.23874391 -8.36962,-1.60802168 -2.94269,-0.3300966 -5.90846,-0.5052693 -8.86942,-0.4621985 -2.31589,-0.053733 -4.3664,0.81433265 -6.43687,1.74873731 -2.18683,1.10706189 -4.52608,1.83437789 -6.84785,2.58440209 -2.019,0.5894676 -3.95558,1.4178784 -5.92385,2.1550031 -5.09973,2.0897717 -10.03132,4.7787098 -14.3241,8.276295 -2.33414,1.474392 -4.62263,3.025329 -7.01834,4.397677 -2.09713,1.242754 -3.31495,3.271102 -4.52416,5.32435 -1.47371,2.788975 -3.15852,5.456664 -4.65166,8.233563 -0.84091,2.123696 -2.11411,4.020616 -3.1286,6.048936 -0.90244,1.506438 -1.71094,3.070669 -2.51762,4.631935 -0.87656,1.552796 -1.8057,3.041174 -2.43487,4.725373 -0.58867,1.622364 -1.01537,3.244883 -1.22062,4.960604 -0.19594,2.890684 -0.43823,5.778613 -0.63758,8.66981 -0.15081,2.107696 -0.22771,4.219349 -0.25923,6.331974 0.011,2.197018 0.13729,4.398626 -0.0634,6.588939 -0.27749,2.040927 -0.47373,4.090924 -0.55643,6.149354 -0.34563,1.952381 -0.54578,3.919536 -0.67216,5.897305 -0.18731,2.229153 0.0195,4.462198 -0.18354,6.687423 -0.31252,2.566086 -0.52982,5.119461 -0.9895,7.664713 -1.14603,6.053 -1.90749,12.15582 -2.50325,18.2865 -0.40344,4.12148 -0.58,8.26275 -0.68884,12.4017 0.1584,2.48819 0.33487,4.98001 0.91482,7.40762 0.54111,2.85184 1.63827,5.51916 2.79712,8.15763 1.1298,2.47203 2.72126,4.70647 4.23399,6.95308 1.67442,2.14166 3.19039,4.39411 4.49014,6.78605 1.50444,2.8335 2.97205,4.82866 5.57284,6.70292 3.56666,1.69711 7.68748,2.10514 11.59498,1.86747 1.0822,-0.0665 2.15455,-0.24668 3.23183,-0.37 7.11968,-1.22582 14.0276,-3.41194 20.82733,-5.8302 3.7597,-1.27055 7.39034,-2.87564 10.93879,-4.65226 4.08099,-1.83021 7.6827,-4.29242 11.61398,-6.59716 0,0 -9.7695,3.82942 -9.7695,3.82942 v 0 c 15.03877,-8.70197 9.62092,-5.28181 6.23459,-3.76555 -3.66757,1.85403 -7.33453,3.71888 -11.23467,5.04111 -6.75066,2.49989 -13.60377,4.8185 -20.71425,6.01829 -1.04199,0.14638 -2.07691,0.35978 -3.12599,0.439 -3.65167,0.2755 -7.50048,-0.21128 -10.89692,-1.59677 -2.35911,-1.57434 -4.02967,-3.74629 -5.30935,-6.29163 -1.30374,-2.43002 -2.83688,-4.70946 -4.50216,-6.90254 -1.49206,-2.17914 -3.07822,-4.34115 -4.20375,-6.73759 -1.08841,-2.6095 -2.18314,-5.21735 -2.63177,-8.03646 -0.52529,-2.34628 -0.66369,-4.76382 -0.85101,-7.15731 -0.0278,-4.04619 0.0373,-8.09299 0.3355,-12.12998 0.50446,-6.17424 1.34608,-12.30547 2.8235,-18.326818 0.54519,-2.596795 0.93407,-5.205343 1.08738,-7.858317 0.11002,-2.239119 0.12339,-4.482112 0.24589,-6.720919 0.14379,-1.983322 0.44803,-3.942809 0.66738,-5.917533 0.11889,-2.042107 0.31529,-4.074901 0.53472,-6.108318 0.12975,-2.227357 0.0187,-4.461166 0.10856,-6.691164 0.003,-2.066165 0.0198,-4.132849 0.11887,-6.197006 0.15527,-2.903168 0.43417,-5.792627 0.82728,-8.673075 0.26129,-1.624655 0.75545,-3.181268 1.32901,-4.720323 0.71162,-1.613681 1.69158,-3.069262 2.49787,-4.633998 0.83243,-1.525901 1.56819,-3.101711 2.44557,-4.603013 1.09143,-1.967823 2.15015,-3.947451 3.06532,-6.007892 1.48935,-2.742452 3.06983,-5.435664 4.61494,-8.14613 1.28902,-1.957679 2.71705,-3.760568 4.79847,-4.898263 2.37899,-1.458293 4.7481,-2.94423 7.03494,-4.5457439 2.9543,-2.1910889 7.80354,-4.6271094 -6.53629,3.6312159 -0.31137,0.179334 0.59494,-0.406074 0.90971,-0.579249 0.67816,-0.373102 1.31718,-0.60118 2.03189,-0.884394 1.94409,-0.816407 3.93046,-1.565245 5.92599,-2.2375487 2.33813,-0.7789809 4.72668,-1.4338603 6.96044,-2.499725 1.95755,-1.0040671 3.96049,-1.9600221 6.18425,-2.0719599 2.93462,-0.2618905 5.89436,0.034043 8.82314,0.2706924 2.76404,0.3314826 5.55064,0.6972791 8.23006,1.4753449 2.96249,0.9289786 6.00395,1.615168 8.85041,2.8880328 2.9107,1.1582405 5.77742,2.3856745 8.47216,4.0059215 2.92811,1.575435 6.01949,2.830405 8.8961,4.513172 4.572,2.768881 8.79316,5.601326 11.42576,10.467042 1.53872,2.903533 2.79613,5.930021 3.82848,9.055448 1.09387,3.674234 2.12234,7.406097 1.99937,11.285401 -0.11991,2.903115 -0.36095,5.795677 -0.61573,8.68866 0.0313,2.788857 0.0417,5.578884 -0.0592,8.3666 -0.19516,3.516949 -0.37991,7.034375 -0.90869,10.520755 -0.26009,2.928043 -0.58799,5.851522 -1.20104,8.729064 0,0 9.49994,-4.697304 9.49994,-4.697304 z" />
    <path
       style="fill:#000000;stroke:#000000;stroke-width:0.232833"
       id="path863"
       d="m -388.20672,65.33006 c -0.99715,1.702351 -2.28242,3.11846 -3.41525,4.689136 -1.59943,1.639064 -2.5261,3.837308 -3.49407,5.998532 -0.95208,2.081591 -1.99207,4.105716 -2.93643,6.19637 -1.23016,1.904246 -2.32056,3.919772 -3.4625,5.894162 -1.03257,1.873948 -2.23146,3.589196 -3.0215,5.629174 -0.78524,2.035401 -1.45047,4.116799 -1.85332,6.301166 -0.24411,1.81469 -0.24902,3.65653 -0.26831,5.4889 -0.0618,1.71846 -0.0594,3.00264 1.08004,4.22174 1.66532,1.08455 3.89926,0.11219 5.64067,-0.3412 2.16271,-0.6004 4.38905,-0.81859 6.48644,-1.70575 0,0 6.54748,-6.0468 6.54748,-6.0468 v 0 c -2.04991,1.14934 -4.29575,1.3861 -6.49836,1.94275 -1.64418,0.39945 -3.35145,1.05478 -5.04087,0.89285 -1.00274,-0.69159 -0.71325,-2.23787 -0.74599,-3.40854 0.009,-1.770303 0.0263,-3.553462 0.33156,-5.294837 0.41855,-2.110897 1.07819,-4.129695 1.90331,-6.070173 0.89396,-1.93535 2.04775,-3.671204 3.06744,-5.515974 1.11471,-1.984604 2.26578,-3.940771 3.36128,-5.938903 0.98876,-2.083572 2.08036,-4.100838 2.98636,-6.238249 0.95545,-2.142647 2.05636,-4.129111 3.57884,-5.792423 1.20581,-1.568584 2.40626,-3.138172 3.52892,-4.790598 0,0 -7.77574,3.888667 -7.77574,3.888667 z" />
    <path
       style="fill:#000000;stroke:#000000;stroke-width:0.232833"
       id="path867"
       d="m -391.0759,170.79127 c 1.27027,3.23519 2.49052,6.51243 3.5304,9.89059 1.06603,2.85963 1.39854,5.95666 1.57143,9.09744 0.25355,3.01796 0.41833,6.04603 0.49479,9.08053 0.0595,2.23576 0.0584,4.47262 0.0416,6.70925 -0.33514,1.94158 -0.67575,3.91552 -1.24602,5.76252 -0.5485,1.327 -0.37598,2.9556 -1.01054,4.20945 -0.43132,0.83768 -0.70635,1.81995 -1.16536,2.62532 -0.0589,0.14555 -0.11791,0.29112 -0.17687,0.43668 0,0 6.76752,-3.99445 6.76752,-3.99445 v 0 c 0.0626,-0.1351 0.12521,-0.2702 0.18781,-0.40531 0.35491,-0.91544 0.8008,-1.76338 1.11311,-2.71002 0.35888,-1.40117 0.45155,-2.90587 0.92165,-4.26587 0.46829,-1.98084 0.95342,-3.98804 1.12322,-6.05746 -0.0229,-2.23807 -0.0317,-4.47738 -0.10935,-6.71355 -0.14382,-3.02356 -0.36004,-6.03838 -0.5851,-9.05307 -0.21424,-3.23676 -0.49574,-6.45295 -1.69522,-9.35737 -1.13046,-3.35414 -2.39414,-6.62788 -3.39577,-10.05748 0,0 -6.36735,4.8028 -6.36735,4.8028 z" />
    <path
       style="fill:#1a1a1a;stroke:#000000;stroke-width:0.4;stroke-linejoin:bevel;stroke-miterlimit:4;stroke-dasharray:none"
       id="path869"
       d="m -365.93166,207.3424 c 0.13128,2.29264 0.0878,4.59095 0.0663,6.886 -0.0131,1.33036 -0.007,0.67732 -0.0187,1.9591 0,0 9.87784,-5.03301 9.87784,-5.03301 v 0 c -0.0118,-1.26954 -0.006,-0.62285 -0.0187,-1.94005 -0.0219,-2.31763 -0.0629,-4.63821 0.0663,-6.95355 0,0 -9.97302,5.08151 -9.97302,5.08151 z" />
    <path
       style="fill:none;stroke:#000000;stroke-width:1.3;stroke-linecap:butt;stroke-linejoin:miter;stroke-miterlimit:4;stroke-dasharray:none;stroke-opacity:1"
       d="m -407.3395,101.38491 -205.73652,43.01585"
       id="path877"
       sodipodi:nodetypes="cc" />
    <path
       style="fill:none;stroke:#000000;stroke-width:1.3;stroke-linecap:butt;stroke-linejoin:miter;stroke-miterlimit:4;stroke-dasharray:none;stroke-opacity:1"
       d="M -369.77904,4.7231064 V -70.403557"
       id="path879"
       sodipodi:nodetypes="cc" />
    <path
       style="fill:none;stroke:#000000;stroke-width:1.3;stroke-linecap:butt;stroke-linejoin:miter;stroke-miterlimit:4;stroke-dasharray:none;stroke-opacity:1"
       d="m -321.63833,104.83864 172.43471,32.20937"
       id="path881"
       sodipodi:nodetypes="cc" />
    <path
       style="fill:#000000;stroke:#000000;stroke-width:0.0999995;stroke-miterlimit:4;stroke-dasharray:0.0999995, 0.0999995;stroke-dashoffset:0"
       id="path887"
       d="m -428.43086,60.349195 c 3.35537,1.614789 6.5225,3.300669 10.5706,4.654161 3.37923,0.959177 6.74234,1.947433 10.33559,2.779075 3.02534,0.662918 6.48616,0.7083 9.82458,0.908822 3.35252,0.356185 6.66663,0.710128 10.11153,0.899499 3.44485,0.08152 6.8393,0.294928 10.23399,0.532113 3.89615,0.470878 7.62462,0.487857 11.58055,0.194569 3.50251,-0.193512 6.93393,-0.523208 10.39376,-0.803858 0.53867,-0.04586 1.07741,-0.09164 1.61608,-0.137481 0,0 17.4946,-5.311639 17.4946,-5.311639 v 0 c -0.50764,0.06259 -1.01529,0.125268 -1.52293,0.187901 -3.51088,0.234765 -6.90241,0.664289 -10.44816,0.819682 -4.18234,0.309297 -6.797,0.662362 -11.10339,0.08868 -3.37392,-0.32402 -6.81208,-0.571876 -10.28667,-0.611608 -3.4615,-0.133955 -6.82414,-0.401469 -10.11569,-0.857706 -3.12056,-0.201736 -6.326,-0.280922 -9.32398,-0.689522 -3.6622,-0.705055 -6.94341,-1.696182 -10.32214,-2.58809 -3.98999,-1.221526 -7.20737,-2.828023 -9.94454,-4.497033 0,0 -19.09378,4.432431 -19.09378,4.432431 z" />
    <circle
       id="path899"
       style="fill:#000000;stroke:#000000;stroke-width:0.264583"
       cx="-317.5"
       cy="132.29167"
       r="0" />
    <circle
       id="path903"
       style="fill:#000000;stroke:#000000;stroke-width:0.264583"
       cx="-331.25833"
       cy="135.46666"
       r="0" />
    <path
       style="fill:#000000;stroke:#000000;stroke-width:0;stroke-linejoin:miter;stroke-miterlimit:3.4;stroke-dasharray:none;stroke-dashoffset:0;paint-order:stroke fill markers"
       id="path921"
       d="m -334.0903,146.98869 c -0.66153,3.21295 -1.55722,6.34972 -2.19172,9.57422 -0.49271,3.95627 -0.74831,7.96479 -0.59011,11.95803 0.10558,3.25544 0.49752,6.4686 0.92776,9.68349 0.0902,1.95978 0.61743,3.82006 0.95086,5.73023 0.50253,1.83087 1.21922,3.56896 1.76709,5.38105 0.69044,2.50033 1.62025,4.84832 2.87185,7.04855 1.95405,2.59523 4.19436,4.92768 6.37755,7.28094 1.88821,2.02092 3.93718,3.89856 6.18572,5.3783 0,0 9.74216,-7.22533 9.74216,-7.22533 v 0 c -2.24814,-1.27708 -4.2572,-3.13538 -6.13887,-5.00671 -2.12189,-2.26254 -4.24435,-4.58019 -6.12293,-7.09897 -1.22787,-2.07665 -2.05224,-4.37231 -2.71373,-6.75281 -0.50375,-1.78279 -1.13729,-3.51169 -1.61727,-5.30332 -0.36603,-1.86842 -0.88293,-3.69377 -1.03771,-5.61125 -0.49152,-3.13484 -0.84644,-6.27941 -0.98475,-9.46343 -0.10173,-3.90279 0.0976,-7.83425 0.75132,-11.67283 0.65615,-3.30437 1.60957,-6.4999 2.44559,-9.74785 0,0 -10.62281,5.84769 -10.62281,5.84769 z" />
    <circle
       id="path923"
       style="fill:#000000;stroke:#000000;stroke-width:0.264583"
       cx="-357.71667"
       cy="210.60834"
       r="0" />
    <circle
       id="path925"
       style="fill:#000000;stroke:#000000;stroke-width:0.264583"
       cx="-357.71667"
       cy="210.60834"
       r="0" />
    <circle
       id="path927"
       style="fill:#000000;stroke:#000000;stroke-width:0.264583"
       cx="-393.69998"
       cy="63.5"
       r="0" />
    <text
       xml:space="preserve"
       style="font-style:normal;font-weight:normal;font-size:10.5833px;line-height:31.2207px;font-family:sans-serif;white-space:pre;inline-size:7.56438;fill:#000000;fill-opacity:1;stroke:none;stroke-width:0.264583"
       x="-343.95834"
       y="-114.3"
       id="text931" />
    <text
       xml:space="preserve"
       style="font-style:normal;font-weight:normal;font-size:10.5833px;line-height:1.25;font-family:sans-serif;fill:#000000;fill-opacity:1;stroke:none;stroke-width:0.264583"
       x="-325.96667"
       y="-123.825"
       id="text935"><tspan
         sodipodi:role="line"
         id="tspan933"
         x="-325.96667"
         y="-123.825"
         style="stroke-width:0.264583" /></text>
    <text
       xml:space="preserve"
       style="font-size:16.9333px;line-height:1.25;font-family:sans-serif;stroke-width:0.264583"
       x="-332.31665"
       y="-115.35833"
       id="text945"><tspan
         sodipodi:role="line"
         id="tspan943"
         x="-332.31665"
         y="-115.35833"
         style="font-size:16.9333px;stroke-width:0.264583"> </tspan></text>
    <text
       xml:space="preserve"
       style="font-size:22.5778px;line-height:1.25;font-family:sans-serif;stroke-width:0.264583"
       x="-350.30832"
       y="-100.54166"
       id="text949"><tspan
         sodipodi:role="line"
         id="tspan947"
         x="-350.30832"
         y="-100.54166"
         style="stroke-width:0.264583" /></text>
    <text
       xml:space="preserve"
       style="font-size:19.7556px;line-height:1.25;font-family:sans-serif;stroke-width:0.264583"
       x="-388.40833"
       y="-76.200012"
       id="text953"><tspan
         sodipodi:role="line"
         id="tspan951"
         x="-388.40833"
         y="-76.200012"
         style="font-size:19.7556px;stroke-width:0.264583">YAW</tspan></text>
    <text
       xml:space="preserve"
       style="font-size:19.7556px;line-height:1.25;font-family:sans-serif;stroke-width:0.264583"
       x="-232.83333"
       y="174.62498"
       id="text957"><tspan
         sodipodi:role="line"
         id="tspan955"
         x="-232.83333"
         y="174.62498"
         style="font-size:19.7556px;stroke-width:0.264583">PITCH</tspan></text>
    <text
       xml:space="preserve"
       style="font-size:19.7556px;line-height:1.25;font-family:sans-serif;stroke-width:0.264583"
       x="-570.44165"
       y="172.50833"
       id="text961"><tspan
         sodipodi:role="line"
         id="tspan959"
         x="-570.44165"
         y="172.50833"
         style="font-size:19.7556px;stroke-width:0.264583">ROLL</tspan></text>
    <path
       style="fill:none;stroke:#000000;stroke-width:0.9;stroke-linecap:butt;stroke-linejoin:miter;stroke-miterlimit:4;stroke-dasharray:none;stroke-dashoffset:0;stroke-opacity:1"
       d="m -542.33653,61.005252 119.70052,24.316583"
       id="path881-0"
       sodipodi:nodetypes="cc" />
    <path
       style="fill:none;stroke:#000000;stroke-width:1.1;stroke-linecap:butt;stroke-linejoin:miter;stroke-miterlimit:4;stroke-dasharray:1.1, 4.4;stroke-dashoffset:0;stroke-opacity:1"
       d="m -422.63612,85.237804 100.9978,19.600836"
       id="path881-0-1"
       sodipodi:nodetypes="cc" />
    <path
       style="fill:none;stroke:#000000;stroke-width:1;stroke-linecap:butt;stroke-linejoin:miter;stroke-miterlimit:4;stroke-dasharray:none;stroke-opacity:1"
       d="M -235.72724,63.254482 -301.4504,79.284414"
       id="path877-8"
       sodipodi:nodetypes="cc" />
    <path
       style="fill:none;stroke:#000000;stroke-width:1;stroke-linecap:butt;stroke-linejoin:miter;stroke-miterlimit:4;stroke-dasharray:1, 4;stroke-dashoffset:0;stroke-opacity:1"
       d="M -320.18904,86.349939 -407.3395,102.44325"
       id="path877-8-3"
       sodipodi:nodetypes="cc" />
    <path
       style="fill:none;stroke:#000000;stroke-width:1;stroke-linecap:butt;stroke-linejoin:miter;stroke-miterlimit:4;stroke-dasharray:1, 8;stroke-dashoffset:0;stroke-opacity:1"
       d="M -370.41669,153.98018 V -6.8716209"
       id="path879-5"
       sodipodi:nodetypes="cc" />
    <path
       style="fill:none;stroke:#000000;stroke-width:2.165;stroke-linecap:butt;stroke-linejoin:miter;stroke-miterlimit:4;stroke-dasharray:none;stroke-opacity:1"
       d="m -206.7415,152.45832 c -5.01692,-35.5295 16.08089,-60.07858 35.96905,-37.84925 v 0"
       id="path3428"
       sodipodi:nodetypes="ccc" />
    <path
       sodipodi:type="star"
       style="fill:#000000;fill-opacity:1;stroke:#000000;stroke-width:4.89989;stroke-linejoin:miter;stroke-miterlimit:4;stroke-dasharray:none;stroke-dashoffset:0;stroke-opacity:1;paint-order:stroke fill markers"
       id="path3430"
       sodipodi:sides="3"
       sodipodi:cx="-158.72862"
       sodipodi:cy="122.23134"
       sodipodi:r1="17.614176"
       sodipodi:r2="8.8070879"
       sodipodi:arg1="0.99945885"
       sodipodi:arg2="2.0466564"
       inkscape:flatsided="false"
       inkscape:rounded="0"
       inkscape:randomized="0"
       d="m -149.20362,137.048 -13.55956,-6.98805 -13.55955,-6.98805 12.83161,-8.24889 12.83161,-8.2489 0.72794,15.23695 z"
       inkscape:transform-center-x="-0.13057383"
       inkscape:transform-center-y="-0.64168052"
       transform="matrix(0.42121773,0,0,0.46348627,-101.90709,61.390183)" />
    <path
       style="fill:none;stroke:#000000;stroke-width:2.165;stroke-linecap:butt;stroke-linejoin:miter;stroke-miterlimit:4;stroke-dasharray:none;stroke-opacity:1"
       d="m -568.05757,119.48499 c 22.21697,-19.23344 49.11705,8.29166 37.52675,30.85112 v 0"
       id="path3428-5"
       sodipodi:nodetypes="ccc"
       inkscape:transform-center-x="-0.7555134"
       inkscape:transform-center-y="1.0354436" />
    <path
       sodipodi:type="star"
       style="fill:#000000;fill-opacity:1;stroke:#000000;stroke-width:4.89989;stroke-linejoin:miter;stroke-miterlimit:4;stroke-dasharray:none;stroke-dashoffset:0;stroke-opacity:1;paint-order:stroke fill markers"
       id="path3430-6"
       sodipodi:sides="3"
       sodipodi:cx="-158.72862"
       sodipodi:cy="122.23134"
       sodipodi:r1="17.614176"
       sodipodi:r2="8.8070879"
       sodipodi:arg1="0.99945885"
       sodipodi:arg2="2.0466564"
       inkscape:flatsided="false"
       inkscape:rounded="0"
       inkscape:randomized="0"
       d="m -149.20362,137.048 -13.55956,-6.98805 -13.55955,-6.98805 12.83161,-8.24889 12.83161,-8.2489 0.72794,15.23695 z"
       inkscape:transform-center-x="0.56779211"
       inkscape:transform-center-y="-0.42656355"
       transform="matrix(-0.41347518,-0.08039053,0.08845761,-0.45496676,-646.73504,165.25461)" />
    <path
       style="fill:none;stroke:#000000;stroke-width:2.16499;stroke-linecap:butt;stroke-linejoin:miter;stroke-miterlimit:4;stroke-dasharray:none;stroke-opacity:1"
       d="m -384.61159,-40.679129 c -4.52316,16.300573 24.06346,12.832386 38.26892,5.949282 v 0"
       id="path3428-4"
       sodipodi:nodetypes="ccc" />
    <path
       sodipodi:type="star"
       style="fill:#000000;fill-opacity:1;stroke:#000000;stroke-width:0;stroke-linejoin:miter;stroke-miterlimit:4;stroke-dasharray:none;stroke-dashoffset:0;stroke-opacity:1;paint-order:stroke fill markers"
       id="path3430-6-1"
       sodipodi:sides="3"
       sodipodi:cx="-158.72862"
       sodipodi:cy="122.23134"
       sodipodi:r1="17.614176"
       sodipodi:r2="8.8070879"
       sodipodi:arg1="0.99945885"
       sodipodi:arg2="2.0466564"
       inkscape:flatsided="false"
       inkscape:rounded="0"
       inkscape:randomized="0"
       d="m -149.20362,137.048 -13.55956,-6.98805 -13.55955,-6.98805 12.83161,-8.24889 12.83161,-8.2489 0.72794,15.23695 z"
       inkscape:transform-center-x="1.3908326"
       inkscape:transform-center-y="-4.8728652"
       transform="matrix(0.33902256,0.04187366,-0.02825605,0.35113985,-325.75622,-79.532871)" />
    <text
       xml:space="preserve"
       style="font-size:22.5778px;line-height:1.25;font-family:sans-serif;stroke-width:0.264583"
       x="-613.07599"
       y="144.40076"
       id="text3503"><tspan
         sodipodi:role="line"
         id="tspan3501"
         x="-613.07599"
         y="144.40076"
         style="stroke-width:0.264583" /></text>
    <text
       xml:space="preserve"
       style="font-size:22.5778px;line-height:1.25;font-family:sans-serif;stroke-width:0.264583"
       x="-521.08966"
       y="150.2643"
       id="text3507"><tspan
         sodipodi:role="line"
         id="tspan3505"
         x="-521.08966"
         y="150.2643"
         style="stroke-width:0.264583">-</tspan></text>
    <text
       xml:space="preserve"
       style="font-size:14.1111px;line-height:1.25;font-family:sans-serif;stroke-width:0.264583"
       x="-590.02081"
       y="125.41249"
       id="text3511"><tspan
         sodipodi:role="line"
         id="tspan3509"
         x="-590.02081"
         y="125.41249"
         style="font-size:14.1111px;stroke-width:0.264583">+</tspan></text>
    <text
       xml:space="preserve"
       style="font-size:14.1111px;line-height:1.25;font-family:sans-serif;stroke-width:0.264583"
       x="-394.01001"
       y="-21.514254"
       id="text3515"><tspan
         sodipodi:role="line"
         id="tspan3513"
         x="-394.01001"
         y="-21.514254"
         style="font-size:14.1111px;stroke-width:0.264583">+</tspan></text>
    <text
       xml:space="preserve"
       style="font-size:22.5778px;line-height:1.25;font-family:sans-serif;stroke-width:0.264583"
       x="-358.06424"
       y="-15.444412"
       id="text3519"><tspan
         sodipodi:role="line"
         id="tspan3517"
         x="-358.06424"
         y="-15.444412"
         style="stroke-width:0.264583">-</tspan></text>
    <text
       xml:space="preserve"
       style="font-size:14.1111px;line-height:1.25;font-family:sans-serif;stroke-width:0.264583"
       x="-219.26791"
       y="145.1808"
       id="text3523"><tspan
         sodipodi:role="line"
         id="tspan3521"
         x="-219.26791"
         y="145.1808"
         style="stroke-width:0.264583" /></text>
    <text
       xml:space="preserve"
       style="font-size:14.1111px;line-height:1.25;font-family:sans-serif;stroke-width:0.264583"
       x="-175.11499"
       y="104.76966"
       id="text3527"><tspan
         sodipodi:role="line"
         id="tspan3525"
         x="-175.11499"
         y="104.76966"
         style="stroke-width:0.264583">+</tspan></text>
    <text
       xml:space="preserve"
       style="font-size:22.5778px;line-height:1.25;font-family:sans-serif;stroke-width:0.264583"
       x="-218.85127"
       y="148.37204"
       id="text3507-4"><tspan
         sodipodi:role="line"
         id="tspan3505-2"
         x="-218.85127"
         y="148.37204"
         style="stroke-width:0.264583">-</tspan></text>
  </g>
</svg>
